<?xml version="1.0" encoding="UTF-8"?>
<svg width="425px" height="291px" viewBox="0 0 425 291" version="1.1" xmlns="http://www.w3.org/2000/svg" xmlns:xlink="http://www.w3.org/1999/xlink">
    <!-- Generator: Sketch 50 (54983) - http://www.bohemiancoding.com/sketch -->
    <title>Ireland FAQ</title>
    <desc>Created with Sketch.</desc>
    <defs></defs>
    <g id="Page-1" stroke="none" stroke-width="1" fill="none" fill-rule="evenodd">
        <path d="M38.1,106.6 L38.2,106.6 L38.1,106.6 Z M38.1,106.6 L37,106.6 C36.733332,106.6 36.533334,106.566667 36.4,106.5 C36.266666,106.433333 36.066668,106.4 35.8,106.4 C35.533332,106.4 35.266668,106.366667 35,106.3 C34.733332,106.233333 34.466668,106.2 34.2,106.2 C33.133328,105.933332 31.833341,105.666668 30.3,105.4 C28.766659,105.133332 27.200008,104.66667 25.6,104 C25.066664,103.866666 24.600002,103.733334 24.2,103.6 L23,103.2 C22.466664,102.933332 22.000002,102.733334 21.6,102.6 L20.4,102 C20.266666,102 20.166667,101.966667 20.1,101.9 C20.033333,101.833333 19.933334,101.8 19.8,101.8 L17.8,100.8 L15.4,99.2 C14.866664,98.933332 14.433335,98.666668 14.1,98.4 C13.766665,98.133332 13.400002,97.866668 13,97.6 C11.933328,96.799996 11.200002,96.200002 10.8,95.8 C10.533332,95.533332 10.200002,95.233335 9.8,94.9 C9.399998,94.566665 9.066668,94.200002 8.8,93.8 C7.999996,92.999996 7.466668,92.400002 7.2,92 C4.666654,88.933318 2.933338,85.600018 2,82 C1.733332,80.933328 1.500001,79.966671 1.3,79.1 C1.099999,78.233329 0.866668,77.333338 0.6,76.4 C0.466666,75.333328 0.366667,74.366671 0.3,73.5 C0.233333,72.633329 0.2,71.666672 0.2,70.6 L0.2,68.1 C0.2,67.233329 0.266666,66.333338 0.4,65.4 C0.533334,64.466662 0.666666,63.566671 0.8,62.7 C0.933334,61.833329 1.066666,61.000004 1.2,60.2 L1.4,59.6 L1.6,58.8 L1.8,57.6 C2.066668,56.93333 2.333332,56.066672 2.6,55 C3.000002,53.533326 3.599996,51.866676 4.4,50 L4.8,48.8 L5.4,47.6 C5.533334,47.066664 5.866664,46.266672 6.4,45.2 L7.6,42.8 C8.000002,41.999996 8.399998,41.26667 8.8,40.6 L9.2,40 L9.4,39.4 L10.2,38.2 L10.8,37.2 L11.6,36 L12.2,35 L13,33.8 L13.4,33.4 L13.8,32.8 L14.6,31.8 C16.866678,28.599984 19.599984,25.400016 22.8,22.2 C25.600014,19.399986 28.799982,16.733346 32.4,14.2 C35.06668,12.466658 37.199992,11.133338 38.8,10.2 C39.066668,10.066666 39.333332,9.866668 39.6,9.6 L40.4,9.2 C40.933336,8.933332 41.399998,8.733334 41.8,8.6 C42.333336,8.199998 43.26666,7.733336 44.6,7.2 C45.133336,6.799998 46.06666,6.333336 47.4,5.8 C47.666668,5.666666 47.899999,5.566667 48.1,5.5 C48.300001,5.433333 48.533332,5.333334 48.8,5.2 C48.933334,5.066666 49.066666,5 49.2,5 C49.333334,5 49.466666,4.933334 49.6,4.8 C49.733334,4.8 49.866666,4.766667 50,4.7 C50.133334,4.633333 50.266666,4.6 50.4,4.6 C50.666668,4.466666 50.933332,4.366667 51.2,4.3 C51.466668,4.233333 51.733332,4.133334 52,4 L55.6,2.8 C55.866668,2.8 56.033333,2.766667 56.1,2.7 C56.166667,2.633333 56.333332,2.6 56.6,2.6 C56.866668,2.466666 57.066666,2.4 57.2,2.4 C57.333334,2.4 57.466666,2.333334 57.6,2.2 L58.8,2 C59.066668,2 59.266666,1.966667 59.4,1.9 C59.533334,1.833333 59.733332,1.8 60,1.8 C60.266668,1.666666 60.466666,1.6 60.6,1.6 C60.733334,1.6 60.933332,1.533334 61.2,1.4 L62.4,1.2 L63.2,1.2 C63.466668,1.2 63.733332,1.133334 64,1 L65.6,1 C66.000002,0.866666 66.666662,0.8 67.6,0.8 L69.6,0.8 C70.26667,0.666666 70.899997,0.633333 71.5,0.7 C72.100003,0.766667 72.73333,0.8 73.4,0.8 C73.666668,0.8 73.933332,0.833333 74.2,0.9 C74.466668,0.966667 74.733332,1 75,1 C75.533336,1 75.866666,1.066666 76,1.2 C77.466674,1.2 78.999992,1.53333 80.6,2.2 C81.133336,2.2 81.533332,2.333332 81.8,2.6 C83.80001,3.26667 86.13332,4.433325 88.8,6.1 C91.46668,7.766675 93.966655,10.199984 96.3,13.4 C98.633345,16.600016 100.599992,20.699975 102.2,25.7 C103.800008,30.700025 104.533334,36.933296 104.4,44.4 C104.266666,52.666708 103.433341,60.766627 101.9,68.7 C100.366659,76.633373 98.366679,84.166631 95.9,91.3 C93.433321,98.433369 90.666682,104.99997 87.6,111 C84.533318,117.00003 81.33335,122.233311 78,126.7 C74.66665,131.166689 71.33335,134.699987 68,137.3 C64.66665,139.900013 61.600014,141.333332 58.8,141.6 C56.533322,141.866668 54.833339,141.200008 53.7,139.6 C52.566661,137.999992 52,136.600006 52,135.4 C51.866666,134.466662 52.333328,133.733336 53.4,133.2 C53.933336,132.933332 54.399998,132.8 54.8,132.8 C56.13334,132.399998 58.099987,131.033345 60.7,128.7 C63.300013,126.366655 66.133318,122.800024 69.2,118 C72.266682,113.199976 75.499983,107.066704 78.9,99.6 C82.300017,92.133296 85.466652,83.200052 88.4,72.8 C91.466682,61.999946 93.166665,52.566707 93.5,44.5 C93.833335,36.433293 93.266674,29.700027 91.8,24.3 C90.333326,18.899973 88.26668,14.766681 85.6,11.9 C82.93332,9.033319 80.133348,7.400002 77.2,7 C74.266652,6.599998 70.700021,6.966661 66.5,8.1 C62.299979,9.233339 57.86669,11.366651 53.2,14.5 C48.53331,17.633349 43.800024,21.799974 39,27 C34.199976,32.200026 29.733354,38.666628 25.6,46.4 C21.733314,53.73337 19.666668,60.099973 19.4,65.5 C19.133332,70.900027 19.766659,75.399982 21.3,79 C22.833341,82.600018 24.899987,85.39999 27.5,87.4 C30.100013,89.40001 32.39999,90.599998 34.4,91 L35.6,91.4 C36.26667,91.666668 36.733332,92.13333 37,92.8 C37.133334,93.333336 37.100001,93.899997 36.9,94.5 C36.699999,95.100003 36.200004,95.533332 35.4,95.8 C34.999998,95.933334 34.533336,96 34,96 C33.599998,96 33.06667,95.966667 32.4,95.9 C31.73333,95.833333 31.000004,95.666668 30.2,95.4 C29.666664,95.266666 28.433343,94.766671 26.5,93.9 C24.566657,93.033329 22.533344,91.633343 20.4,89.7 C18.266656,87.766657 16.333342,85.166683 14.6,81.9 C12.866658,78.633317 11.866668,74.466692 11.6,69.4 C11.466666,63.666638 12.266658,57.733364 14,51.6 C15.466674,46.399974 17.966649,40.600032 21.5,34.2 C25.033351,27.799968 30.333298,21.60003 37.4,15.6 C38.866674,14.26666 40.59999,12.866674 42.6,11.4 C46.066684,8.866654 50.599972,6.466678 56.2,4.2 C56.066666,4.2 55.933334,4.233333 55.8,4.3 C55.666666,4.366667 55.533334,4.4 55.4,4.4 C53.933326,4.933336 52.500007,5.433331 51.1,5.9 C49.699993,6.366669 48.266674,6.93333 46.8,7.6 L45.8,8.2 L45.2,8.4 C45.066666,8.4 45,8.433333 45,8.5 C45,8.566667 44.933334,8.6 44.8,8.6 L42.8,9.8 C42.266664,9.933334 41.600004,10.266664 40.8,10.8 C40.266664,11.066668 39.933334,11.266666 39.8,11.4 L38.8,12 C36.533322,13.33334 34.200012,14.866658 31.8,16.6 C29.399988,18.466676 27.20001,20.266658 25.2,22 C24.133328,23.066672 23.133338,24.099995 22.2,25.1 C21.266662,26.100005 20.333338,27.133328 19.4,28.2 C18.466662,29.266672 17.566671,30.366661 16.7,31.5 C15.833329,32.633339 15.000004,33.733328 14.2,34.8 C10.19998,40.666696 7.000012,46.999966 4.6,53.8 C4.333332,54.866672 4.066668,55.833329 3.8,56.7 C3.533332,57.566671 3.266668,58.533328 3,59.6 C2.733332,60.666672 2.533334,61.666662 2.4,62.6 C2.266666,63.533338 2.133334,64.533328 2,65.6 C1.733332,67.60001 1.633333,69.633323 1.7,71.7 C1.766667,73.766677 1.999998,75.733324 2.4,77.6 C2.800002,79.866678 3.433329,82.099989 4.3,84.3 C5.166671,86.500011 6.333326,88.533324 7.8,90.4 C10.600014,94.133352 14.066646,97.266654 18.2,99.8 C19.000004,100.200002 19.599998,100.533332 20,100.8 C20.133334,100.8 20.233333,100.833333 20.3,100.9 C20.366667,100.966667 20.466666,101 20.6,101 C20.733334,101.133334 20.833333,101.2 20.9,101.2 C20.966667,101.2 21.066666,101.266666 21.2,101.4 C21.600002,101.666668 22.033331,101.899999 22.5,102.1 C22.966669,102.300001 23.599996,102.533332 24.4,102.8 C24.533334,102.8 24.999996,102.933332 25.8,103.2 C25.933334,103.333334 26.066666,103.4 26.2,103.4 C26.333334,103.4 26.433333,103.433333 26.5,103.5 C26.566667,103.566667 26.666666,103.6 26.8,103.6 C26.933334,103.6 27.266664,103.733332 27.8,104 C28.46667,104.266668 29.233329,104.499999 30.1,104.7 C30.966671,104.900001 31.799996,105.133332 32.6,105.4 C32.866668,105.4 33.066666,105.433333 33.2,105.5 C33.333334,105.566667 33.533332,105.6 33.8,105.6 C34.066668,105.733334 34.466664,105.8 35,105.8 C35.800004,106.066668 36.399998,106.2 36.8,106.2 C37.333336,106.466668 37.733332,106.6 38,106.6 L38.1,106.6 Z M143.666667,54.8 L146.066667,55.6 C147.266673,56.000002 148.366662,56.766661 149.366667,57.9 C150.366672,59.033339 151.099998,60.733322 151.566667,63 C152.033336,65.266678 151.733339,68.333314 150.666667,72.2 C149.599995,76.20002 148.233342,79.099991 146.566667,80.9 C144.899992,82.700009 143.233342,83.766665 141.566667,84.1 C139.899992,84.433335 138.400007,84.233337 137.066667,83.5 C135.733327,82.766663 134.933335,81.866672 134.666667,80.8 C134.399999,79.999996 134.699996,79.033339 135.566667,77.9 C136.433338,76.766661 137.333329,75.400008 138.266667,73.8 C139.200005,72.199992 139.966664,70.200012 140.566667,67.8 C141.16667,65.399988 141.066671,62.466684 140.266667,59 C138.933327,61.266678 137.500008,64.233315 135.966667,67.9 C134.433326,71.566685 132.866675,75.533312 131.266667,79.8 C129.666659,84.066688 128.133341,88.399978 126.666667,92.8 L122.666667,104.8 C121.466661,108.666686 120.366672,111.699989 119.366667,113.9 C118.366662,116.100011 117.433338,117.733328 116.566667,118.8 C115.699996,119.866672 114.933337,120.533332 114.266667,120.8 C113.599997,121.066668 112.933337,121.2 112.266667,121.2 C110.799993,121.2 109.633338,120.766671 108.766667,119.9 C107.899996,119.033329 107.200003,118.066672 106.666667,117 C105.999997,115.933328 105.666667,114.533342 105.666667,112.8 C105.533333,111.999996 105.533333,111.133338 105.666667,110.2 C105.666667,108.333324 105.733333,106.466676 105.866667,104.6 C106.000001,102.733324 106.133333,101.000008 106.266667,99.4 C106.400001,97.533324 106.599999,95.733342 106.866667,94 C107.266669,89.599978 107.899996,85.300021 108.766667,81.1 C109.633338,76.899979 110.733327,72.13336 112.066667,66.8 C112.066667,66.666666 112.133333,66.466668 112.266667,66.2 C112.533335,65.666664 112.933331,65.333334 113.466667,65.2 C114.266671,64.933332 115.266661,64.700001 116.466667,64.5 C117.666673,64.299999 118.866661,64.2 120.066667,64.2 C121.266673,64.2 122.366662,64.366665 123.366667,64.7 C124.366672,65.033335 124.999999,65.666662 125.266667,66.6 L125.266667,67.2 C125.266667,67.466668 125.133335,68.133328 124.866667,69.2 C122.999991,74.933362 121.233342,80.79997 119.566667,86.8 C117.899992,92.80003 116.733337,99.333298 116.066667,106.4 C116.600003,104.933326 117.599993,102.000022 119.066667,97.6 C120.533341,93.199978 122.333323,87.733366 124.466667,81.2 C126.066675,75.86664 127.866657,71.133354 129.866667,67 C130.666671,65.266658 131.566662,63.600008 132.566667,62 C133.566672,60.399992 134.666661,59.000006 135.866667,57.8 C137.066673,56.599994 138.299994,55.700003 139.566667,55.1 C140.83334,54.499997 142.199993,54.399998 143.666667,54.8 Z M314.733333,89.8 L314.733333,91.2 L314.533333,91.4 L314.533333,91.6 C314.533333,91.866668 314.466667,92.133332 314.333333,92.4 L314.333333,92.8 C314.199999,92.8 314.133333,92.933332 314.133333,93.2 C313.999999,93.466668 313.833334,93.766665 313.633333,94.1 C313.433332,94.433335 313.200001,94.733332 312.933333,95 C312.799999,95.266668 312.466669,95.666664 311.933333,96.2 C311.799999,96.466668 311.666667,96.633333 311.533333,96.7 C311.399999,96.766667 311.266667,96.866666 311.133333,97 L310.733333,97.4 C310.599999,97.533334 310.5,97.6 310.433333,97.6 C310.366666,97.6 310.266667,97.666666 310.133333,97.8 C308.533325,98.866672 307.000007,99.799996 305.533333,100.6 C303.933325,101.26667 302.500006,101.799998 301.233333,102.2 C299.96666,102.600002 299.466665,102.733334 299.733333,102.6 C299.866667,102.466666 300.299996,102.300001 301.033333,102.1 C301.76667,101.899999 302.666661,101.533336 303.733333,101 C304.266669,100.733332 304.83333,100.433335 305.433333,100.1 C306.033336,99.766665 306.666663,99.400002 307.333333,99 C308.000003,98.466664 308.666663,97.966669 309.333333,97.5 C310.000003,97.033331 310.666663,96.46667 311.333333,95.8 C311.600001,95.399998 311.866665,95.033335 312.133333,94.7 C312.400001,94.366665 312.666665,94.000002 312.933333,93.6 C313.200001,93.199998 313.366666,92.766669 313.433333,92.3 C313.5,91.833331 313.599999,91.400002 313.733333,91 C313.733333,90.199996 313.600001,89.266672 313.333333,88.2 C313.066665,87.666664 312.533337,86.866672 311.733333,85.8 C311.466665,85.399998 311.133335,85.033335 310.733333,84.7 C310.333331,84.366665 310.000001,84.066668 309.733333,83.8 C309.199997,83.533332 308.800001,83.266668 308.533333,83 C308.399999,83 308.200001,82.866668 307.933333,82.6 C307.799999,82.6 307.7,82.566667 307.633333,82.5 C307.566666,82.433333 307.466667,82.4 307.333333,82.4 C305.733325,81.466662 304.133341,80.66667 302.533333,80 C300.666657,79.33333 298.800009,78.766669 296.933333,78.3 C295.066657,77.833331 293.200009,77.400002 291.333333,77 C290.399995,76.733332 289.466671,76.566667 288.533333,76.5 C287.599995,76.433333 286.600005,76.333334 285.533333,76.2 C284.599995,76.066666 283.666671,75.966667 282.733333,75.9 C281.799995,75.833333 280.866671,75.733334 279.933333,75.6 C276.333315,75.333332 272.700018,75.166667 269.033333,75.1 C265.366648,75.033333 261.733351,75.133332 258.133333,75.4 C256.266657,75.533334 254.466675,75.666666 252.733333,75.8 C250.999991,75.933334 249.200009,76.066666 247.333333,76.2 L244.733333,76.6 L241.933333,76.8 L239.333333,77.2 L236.533333,77.6 C234.399989,77.866668 232.30001,78.199998 230.233333,78.6 C228.166656,79.000002 226.066677,79.399998 223.933333,79.8 C222.866661,80.066668 221.800005,80.299999 220.733333,80.5 C219.666661,80.700001 218.600005,80.933332 217.533333,81.2 L215.933333,81.6 C215.399997,81.866668 214.866669,82 214.333333,82 L211.333333,83 L210.733333,83 C210.599999,83.133334 210.400001,83.2 210.133333,83.2 C209.999999,83.333334 209.866667,83.4 209.733333,83.4 C209.599999,83.4 209.400001,83.466666 209.133333,83.6 C208.866665,83.733334 208.566668,83.8 208.233333,83.8 C207.899998,83.8 207.600001,83.866666 207.333333,84 C207.066665,85.066672 206.700002,86.299993 206.233333,87.7 C205.766664,89.100007 205.133337,90.666658 204.333333,92.4 C203.533329,94.266676 202.466673,96.266656 201.133333,98.4 C200.066661,100.266676 198.700008,102.266656 197.033333,104.4 C195.366658,106.533344 193.400011,108.59999 191.133333,110.6 C187.666649,113.666682 184.100018,115.799994 180.433333,117 C176.766648,118.200006 173.266683,118.13334 169.933333,116.8 C163.133299,113.999986 158.36668,110.066692 155.633333,105 C152.899986,99.933308 152.133327,93.466706 153.333333,85.6 C154.266671,80.799976 155.799989,76.466686 157.933333,72.6 C159.800009,69.26665 162.333317,66.166681 165.533333,63.3 C168.733349,60.433319 172.999973,58.800002 178.333333,58.4 C180.333343,58.266666 182.066659,58.466664 183.533333,59 C184.866673,59.400002 186.033328,60.199994 187.033333,61.4 C188.033338,62.600006 188.599999,64.333322 188.733333,66.6 C188.733333,68.066674 188.566668,69.866656 188.233333,72 C187.899998,74.133344 187.200005,76.599986 186.133333,79.4 C185.599997,80.600006 185.133335,81.733328 184.733333,82.8 C184.333331,83.866672 183.866669,84.866662 183.333333,85.8 C181.333323,89.533352 179.133345,92.666654 176.733333,95.2 C177.000001,94.933332 177.266665,94.766667 177.533333,94.7 C177.800001,94.633333 178.066665,94.466668 178.333333,94.2 C179.000003,93.933332 179.63333,93.633335 180.233333,93.3 C180.833336,92.966665 181.466663,92.666668 182.133333,92.4 C182.400001,92.133332 182.733331,91.966667 183.133333,91.9 C183.533335,91.833333 183.866665,91.666668 184.133333,91.4 C184.666669,91.133332 184.999999,90.933334 185.133333,90.8 C185.400001,90.8 185.799997,90.666668 186.333333,90.4 C187.800007,89.73333 189.266659,89.100003 190.733333,88.5 C192.200007,87.899997 193.666659,87.26667 195.133333,86.6 L197.533333,85.8 C198.066669,85.533332 198.399999,85.4 198.533333,85.4 L199.733333,85 L201.933333,84.2 C202.066667,84.2 202.133333,84.166667 202.133333,84.1 C202.133333,84.033333 202.199999,84 202.333333,84 C202.866669,82.66666 203.466663,81.33334 204.133333,80 C204.400001,79.599998 204.666665,79.133336 204.933333,78.6 C205.200001,78.333332 205.466665,78.033335 205.733333,77.7 C206.000001,77.366665 206.333331,77.333332 206.733333,77.6 C207.800005,78.133336 208.133335,79.73332 207.733333,82.4 C212.800025,80.799992 217.96664,79.433339 223.233333,78.3 C228.500026,77.166661 233.799973,76.26667 239.133333,75.6 C243.000019,75.066664 246.766648,74.666668 250.433333,74.4 C254.100018,74.133332 257.866647,73.866668 261.733333,73.6 L268.133333,73.6 C270.266677,73.6 272.399989,73.666666 274.533333,73.8 C276.800011,73.933334 278.966656,74.066666 281.033333,74.2 C283.10001,74.333334 285.266655,74.599998 287.533333,75 C288.733339,75.133334 289.933327,75.333332 291.133333,75.6 C292.333339,75.866668 293.599993,76.133332 294.933333,76.4 C295.600003,76.533334 296.199997,76.666666 296.733333,76.8 C297.266669,76.933334 297.866663,77.133332 298.533333,77.4 C299.200003,77.666668 299.799997,77.866666 300.333333,78 C300.866669,78.133334 301.466663,78.333332 302.133333,78.6 C302.400001,78.6 302.566666,78.633333 302.633333,78.7 C302.7,78.766667 302.866665,78.8 303.133333,78.8 L303.933333,79.2 C304.333335,79.466668 304.933329,79.733332 305.733333,80 C306.266669,80.266668 306.799997,80.566665 307.333333,80.9 C307.866669,81.233335 308.399997,81.599998 308.933333,82 C310.133339,82.66667 311.133329,83.466662 311.933333,84.4 C313.133339,85.600006 313.866665,86.733328 314.133333,87.8 C314.533335,88.600004 314.733333,89.266664 314.733333,89.8 Z M166.933333,86.4 C166.266663,88.666678 165.833334,90.766657 165.633333,92.7 C165.433332,94.633343 165.333333,96.333326 165.333333,97.8 C168.400015,95.399988 170.933323,92.733348 172.933333,89.8 C174.933343,86.866652 176.599993,84.133346 177.933333,81.6 C178.200001,80.93333 178.533331,80.233337 178.933333,79.5 C179.333335,78.766663 179.666665,78.06667 179.933333,77.4 C180.333335,76.73333 180.599999,76.000004 180.733333,75.2 C181.400003,73.466658 181.933331,71.700009 182.333333,69.9 C182.733335,68.099991 182.933333,66.600006 182.933333,65.4 C182.933333,64.199994 182.666669,63.366669 182.133333,62.9 C181.599997,62.433331 180.666673,62.666662 179.333333,63.6 C177.466657,64.800006 175.866673,66.366657 174.533333,68.3 C173.199993,70.233343 172.033338,72.266656 171.033333,74.4 C170.033328,76.533344 169.200003,78.666656 168.533333,80.8 C167.866663,82.933344 167.333335,84.799992 166.933333,86.4 Z M187.533333,106.4 C189.000007,104.933326 190.399993,103.433341 191.733333,101.9 C193.066673,100.366659 194.199995,98.866674 195.133333,97.4 C196.200005,95.799992 197.133329,94.200008 197.933333,92.6 C198.733337,91.133326 199.333331,90.000004 199.733333,89.2 L201.333333,86 C201.199999,86 201.066667,86.033333 200.933333,86.1 C200.799999,86.166667 200.666667,86.2 200.533333,86.2 C200.266665,86.333334 199.733337,86.533332 198.933333,86.8 C198.666665,86.933334 198.433334,87.033333 198.233333,87.1 C198.033332,87.166667 197.800001,87.266666 197.533333,87.4 C195.666657,87.933336 193.600011,88.733328 191.333333,89.8 C191.066665,89.933334 190.533337,90.133332 189.733333,90.4 C189.599999,90.533334 189.466667,90.6 189.333333,90.6 C189.199999,90.6 189.066667,90.666666 188.933333,90.8 C188.666665,90.933334 188.5,91 188.433333,91 C188.366666,91 188.200001,91.066666 187.933333,91.2 C187.666665,91.333334 187.366668,91.466666 187.033333,91.6 C186.699998,91.733334 186.400001,91.866666 186.133333,92 C185.866665,92.266668 185.566668,92.433333 185.233333,92.5 C184.899998,92.566667 184.533335,92.733332 184.133333,93 L183.133333,93.4 L181.933333,94 C181.533331,94.266668 181.166668,94.466666 180.833333,94.6 C180.499998,94.733334 180.133335,94.933332 179.733333,95.2 C178.933329,95.600002 177.933339,96.13333 176.733333,96.8 C175.533327,97.46667 174.400005,98.13333 173.333333,98.8 C172.133327,99.46667 171.033338,100.13333 170.033333,100.8 C169.033328,101.46667 168.200003,101.999998 167.533333,102.4 C167.266665,102.533334 167.000001,102.699999 166.733333,102.9 C166.466665,103.100001 166.133335,103.333332 165.733333,103.6 C166.000001,105.333342 166.43333,106.699995 167.033333,107.7 C167.633336,108.700005 168.266663,109.466664 168.933333,110 C169.600003,110.66667 170.333329,111.133332 171.133333,111.4 C174.200015,112.333338 177.133319,112.233339 179.933333,111.1 C182.733347,109.966661 185.266655,108.40001 187.533333,106.4 Z M211.6,133.2 C208.533318,132.666664 206.300007,130.600018 204.9,127 C203.499993,123.399982 202.600002,119.60002 202.2,115.6 C201.666664,110.93331 201.599998,105.666696 202,99.8 C202.66667,88.199942 204.433319,77.100053 207.3,66.5 C210.166681,55.899947 213.199984,46.533374 216.4,38.4 C219.600016,30.266626 222.466654,23.733358 225,18.8 C227.533346,13.866642 228.866666,11.266668 229,11 C229.133334,10.733332 229.299999,10.533334 229.5,10.4 C229.700001,10.266666 229.866666,10.133334 230,10 L230.4,9.6 C230.933336,9.333332 231.53333,9.066668 232.2,8.8 C232.86667,8.533332 233.566663,8.333334 234.3,8.2 C235.033337,8.066666 235.933328,8 237,8 C237.933338,8 238.933328,8.166665 240,8.5 C241.066672,8.833335 241.999996,9.33333 242.8,10 C243.600004,10.66667 244.099999,11.533328 244.3,12.6 C244.500001,13.666672 244.133338,14.86666 243.2,16.2 C242.53333,17.133338 241.233343,19.233317 239.3,22.5 C237.366657,25.766683 235.133346,29.866642 232.6,34.8 C230.066654,39.733358 227.500013,45.399968 224.9,51.8 C222.299987,58.200032 219.966677,64.899965 217.9,71.9 C215.833323,78.900035 214.266672,86.06663 213.2,93.4 C212.133328,100.73337 211.93333,107.933298 212.6,115 C212.733334,116.866676 212.866666,118.46666 213,119.8 C213.133334,121.13334 213.333332,122.333328 213.6,123.4 C214.800006,117.533304 216.366657,111.866694 218.3,106.4 C220.233343,100.933306 222.066658,96.466684 223.8,93 C225.13334,90.33332 226.333328,88.233341 227.4,86.7 C228.466672,85.166659 229.433329,84.033337 230.3,83.3 C231.166671,82.566663 231.93333,82.166667 232.6,82.1 C233.26667,82.033333 233.799998,82.066666 234.2,82.2 C234.600002,82.333334 234.833333,82.599998 234.9,83 C234.966667,83.400002 234.933334,83.799998 234.8,84.2 C234.666666,84.733336 234.466668,85.33333 234.2,86 C231.53332,91.066692 229.300009,95.733312 227.5,100 C225.699991,104.266688 224.233339,108.06665 223.1,111.4 C221.966661,114.73335 221.06667,117.599988 220.4,120 C219.73333,122.400012 219.200002,124.399992 218.8,126 C218.399998,127.600008 217.933336,128.933328 217.4,130 C216.866664,131.066672 216.133338,131.93333 215.2,132.6 C214.266662,133.26667 213.066674,133.466668 211.6,133.2 Z M295.866667,82.4 C296.666671,83.06667 297.066667,84.599988 297.066667,87 C297.066667,89.400012 295.866679,93.333306 293.466667,98.8 C292.399995,101.200012 290.966676,104.166649 289.166667,107.7 C287.366658,111.233351 285.400011,114.766649 283.266667,118.3 C281.133323,121.833351 278.933345,125.099985 276.666667,128.1 C274.399989,131.100015 272.333343,133.199994 270.466667,134.4 C269.933331,134.800002 269.400003,135.133332 268.866667,135.4 C268.333331,135.666668 267.666671,135.899999 266.866667,136.1 C266.066663,136.300001 265.133339,136.266668 264.066667,136 C262.866661,135.733332 261.833338,135.300003 260.966667,134.7 C260.099996,134.099997 259.400003,133.46667 258.866667,132.8 C258.333331,131.999996 257.866669,131.066672 257.466667,130 C256.799997,128.133324 256.433334,126.000012 256.366667,123.6 C256.3,121.199988 256.366666,118.66668 256.566667,116 C256.766668,113.33332 257.099998,110.66668 257.566667,108 C258.033336,105.33332 258.533331,102.866678 259.066667,100.6 C256.399987,104.866688 254.000011,108.299987 251.866667,110.9 C249.733323,113.500013 247.833342,115.46666 246.166667,116.8 C244.499992,118.13334 242.966674,118.999998 241.566667,119.4 C240.16666,119.800002 238.933339,120 237.866667,120 C236.533327,120 235.300006,119.700003 234.166667,119.1 C233.033328,118.499997 232.066671,117.86667 231.266667,117.2 C230.333329,116.399996 229.466671,115.400006 228.666667,114.2 C227.066659,112.19999 226.166668,109.433351 225.966667,105.9 C225.766666,102.366649 225.999997,98.700019 226.666667,94.9 C227.333337,91.099981 228.333327,87.400018 229.666667,83.8 C231.000007,80.199982 232.399993,77.266678 233.866667,75 C235.333341,72.733322 236.933325,70.60001 238.666667,68.6 C240.400009,66.59999 242.366656,64.900007 244.566667,63.5 C246.766678,62.099993 249.23332,61.06667 251.966667,60.4 C254.700014,59.73333 257.799983,59.533332 261.266667,59.8 C263.666679,60.066668 265.666659,60.53333 267.266667,61.2 C268.866675,61.86667 270.199995,62.733328 271.266667,63.8 C272.333339,61.399988 273.399995,59.333342 274.466667,57.6 L274.666667,57.4 C274.933335,57.133332 275.199999,56.933334 275.466667,56.8 C276.133337,56.533332 277.099994,56.300001 278.366667,56.1 C279.63334,55.899999 281.066659,55.933332 282.666667,56.2 C284.666677,56.733336 285.966664,57.766659 286.566667,59.3 C287.16667,60.833341 287.133337,62.199994 286.466667,63.4 C286.333333,63.800002 285.500008,65.533318 283.966667,68.6 C282.433326,71.666682 280.70001,75.433311 278.766667,79.9 C276.833324,84.366689 274.833344,89.26664 272.766667,94.6 C270.69999,99.93336 269.000007,104.999976 267.666667,109.8 C266.333327,114.600024 265.566668,118.866648 265.366667,122.6 C265.166666,126.333352 265.933325,128.86666 267.666667,130.2 C269.533343,128.599992 271.733321,125.933352 274.266667,122.2 C276.533345,118.999984 279.199985,114.466696 282.266667,108.6 C285.333349,102.733304 288.933313,94.933382 293.066667,85.2 C293.200001,84.666664 293.466665,84.133336 293.866667,83.6 C294.666671,82.533328 295.333331,82.133332 295.866667,82.4 Z M239.466667,115 C240.133337,115.133334 241.199993,114.400008 242.666667,112.8 C244.133341,111.199992 245.733325,109.200012 247.466667,106.8 C249.200009,104.399988 251.033324,101.733348 252.966667,98.8 C254.90001,95.866652 256.699992,93.06668 258.366667,90.4 C260.033342,87.73332 261.466661,85.366677 262.666667,83.3 C263.866673,81.233323 264.733331,79.800004 265.266667,79 C265.666669,77.133324 265.9,75.166677 265.966667,73.1 C266.033334,71.033323 265.833336,69.233341 265.366667,67.7 C264.899998,66.166659 264.100006,65.100003 262.966667,64.5 C261.833328,63.899997 260.333343,64.066662 258.466667,65 C256.199989,66.200006 253.933345,68.199986 251.666667,71 C249.399989,73.800014 247.266677,76.86665 245.266667,80.2 C243.266657,83.53335 241.566674,86.799984 240.166667,90 C238.76666,93.200016 237.800003,95.866656 237.266667,98 C236.333329,102.266688 235.866667,106.099983 235.866667,109.5 C235.866667,112.900017 237.066655,114.733332 239.466667,115 Z M353.133334,80.6 C353.66667,80.866668 353.800002,81.599994 353.533334,82.8 C353.4,83.333336 353.200002,83.93333 352.933334,84.6 C346.79997,95.533388 342.433347,104.433299 339.833334,111.3 C337.233321,118.166701 335.400006,123.133318 334.333334,126.2 C333.799998,127.53334 333.200004,128.733328 332.533334,129.8 C331.866664,130.733338 331.100005,131.53333 330.233334,132.2 C329.366663,132.86667 328.33334,133.2 327.133334,133.2 C323.533316,133.2 321.033341,131.633349 319.633334,128.5 C318.233327,125.366651 317.400002,121.866686 317.133334,118 C316.866666,113.599978 317.199996,108.600028 318.133334,103 C319.200006,95.799964 320.733324,88.566703 322.733334,81.3 C324.733344,74.033297 326.999988,66.933368 329.533334,60 C329.133332,60.533336 328.100009,61.966655 326.433334,64.3 C324.766659,66.633345 322.766679,69.766647 320.433334,73.7 C318.099989,77.633353 315.600014,82.199974 312.933334,87.4 C310.266654,92.600026 307.66668,98.399968 305.133334,104.8 C304.599998,105.866672 304.06667,106.799996 303.533334,107.6 C302.866664,108.26667 302.133338,108.93333 301.333334,109.6 C300.53333,110.26667 299.53334,110.533334 298.333334,110.4 C296.86666,110.4 295.800004,109.966671 295.133334,109.1 C294.466664,108.233329 294.000002,107.266672 293.733334,106.2 C293.333332,104.999994 293.133334,103.600008 293.133334,102 C293,100.533326 292.966667,99.033341 293.033334,97.5 C293.100001,95.966659 293.2,94.600006 293.333334,93.4 C293.466668,91.933326 293.533334,90.600006 293.533334,89.4 C294.06667,85.533314 294.766663,81.93335 295.633334,78.6 C296.500005,75.26665 297.599994,71.333356 298.933334,66.8 L299.333334,66 C299.600002,65.466664 300.066664,65.133334 300.733334,65 L303.733334,64.5 C304.93334,64.299999 306.133328,64.2 307.333334,64.2 C308.53334,64.2 309.599996,64.366665 310.533334,64.7 C311.466672,65.033335 312.066666,65.599996 312.333334,66.4 L312.333334,67 C312.333334,67.266668 312.266668,67.566665 312.133334,67.9 C312,68.233335 311.866668,68.599998 311.733334,69 C309.466656,74.466694 307.700007,78.86665 306.433334,82.2 C305.166661,85.53335 304.200004,89.266646 303.533334,93.4 C304.200004,92.06666 305.166661,90.06668 306.433334,87.4 C307.700007,84.73332 309.166659,81.833349 310.833334,78.7 C312.500009,75.566651 314.333324,72.33335 316.333334,69 C318.333344,65.66665 320.366657,62.633347 322.433334,59.9 C324.500011,57.166653 326.533324,55.000008 328.533334,53.4 C330.533344,51.799992 332.399992,51.066666 334.133334,51.2 C336.133344,51.333334 337.733328,52.06666 338.933334,53.4 C340.000006,54.466672 340.633333,56.199988 340.833334,58.6 C341.033335,61.000012 340.266676,64.333312 338.533334,68.6 C335.599986,77.26671 333.20001,85.26663 331.333334,92.6 C330.53333,95.800016 329.833337,98.999984 329.233334,102.2 C328.633331,105.400016 328.200002,108.399986 327.933334,111.2 C327.666666,114.000014 327.633333,116.499989 327.833334,118.7 C328.033335,120.900011 328.599996,122.599994 329.533334,123.8 C331.133342,117.933304 333.166655,112.266694 335.633334,106.8 C338.100013,101.333306 340.133326,96.866684 341.733334,93.4 C344.400014,87.933306 346.733324,84.400008 348.733334,82.8 C350.733344,81.199992 352.199996,80.466666 353.133334,80.6 Z M416.8,0.8 C417.733338,0.8 418.733328,0.966665 419.8,1.3 C420.866672,1.633335 421.799996,2.13333 422.6,2.8 C423.400004,3.46667 423.899999,4.333328 424.1,5.4 C424.300001,6.466672 423.933338,7.66666 423,9 C422.33333,9.933338 420.966677,12.366647 418.9,16.3 C416.833323,20.233353 414.433347,25.166637 411.7,31.1 C408.966653,37.033363 406.133348,43.733296 403.2,51.2 C400.266652,58.666704 397.666678,66.39996 395.4,74.4 C393.133322,82.40004 391.433339,90.39996 390.3,98.4 C389.166661,106.40004 388.999996,113.933298 389.8,121 C390.066668,122.866676 390.299999,124.46666 390.5,125.8 C390.700001,127.13334 390.933332,128.333328 391.2,129.4 C391.600002,126.73332 392.199996,123.800016 393,120.6 C393.800004,117.399984 394.733328,114.233349 395.8,111.1 C396.866672,107.966651 397.966661,104.966681 399.1,102.1 C400.233339,99.233319 401.199996,96.866676 402,95 C404.266678,89.533306 406.299991,85.966675 408.1,84.3 C409.900009,82.633325 411.266662,81.933332 412.2,82.2 C412.600002,82.333334 412.833333,82.599998 412.9,83 C412.966667,83.400002 412.933334,83.799998 412.8,84.2 C412.666666,84.733336 412.466668,85.33333 412.2,86 C409.133318,92.6667 406.633343,98.566641 404.7,103.7 C402.766657,108.833359 401.200006,113.233315 400,116.9 C398.799994,120.566685 397.933336,123.633321 397.4,126.1 C396.866664,128.566679 396.533334,130.46666 396.4,131.8 C396.266666,133.400008 395.933336,134.799994 395.4,136 C394.999998,137.066672 394.333338,137.999996 393.4,138.8 C392.466662,139.600004 391.266674,139.866668 389.8,139.6 C386.333316,139.066664 383.800008,136.933352 382.2,133.2 C380.599992,129.466648 379.533336,125.466688 379,121.2 C378.466664,116.266642 378.399998,110.733364 378.8,104.6 C378.933334,103.666662 379.033333,102.766671 379.1,101.9 C379.166667,101.033329 379.266666,100.066672 379.4,99 C376.333318,105.266698 373.566679,110.233315 371.1,113.9 C368.633321,117.566685 366.433343,120.366657 364.5,122.3 C362.566657,124.233343 360.833341,125.499997 359.3,126.1 C357.766659,126.700003 356.400006,127 355.2,127 C353.86666,127 352.633339,126.66667 351.5,126 C350.366661,125.33333 349.400004,124.533338 348.6,123.6 C347.533328,122.666662 346.600004,121.53334 345.8,120.2 C344.199992,117.799988 343.300001,114.633353 343.1,110.7 C342.899999,106.766647 343.166663,102.633355 343.9,98.3 C344.633337,93.966645 345.66666,89.733354 347,85.6 C348.33334,81.466646 349.733326,78.06668 351.2,75.4 C354.133348,69.933306 357.699979,65.466684 361.9,62 C366.100021,58.533316 371.666632,57.13333 378.6,57.8 C380.466676,58.066668 382.099993,58.466664 383.5,59 C384.900007,59.533336 386.133328,60.199996 387.2,61 C389.333344,53.133294 391.666654,45.766701 394.2,38.9 C396.733346,32.033299 399.066656,26.000026 401.2,20.8 C403.333344,15.599974 405.133326,11.500015 406.6,8.5 C408.066674,5.499985 408.866666,3.866668 409,3.6 C409.133334,3.333332 409.399998,3.000002 409.8,2.6 L410.2,2.2 L412,1.6 C412.66667,1.333332 413.366663,1.133334 414.1,1 C414.833337,0.866666 415.733328,0.8 416.8,0.8 Z M382.4,79.8 C382.533334,79.399998 382.633333,78.86667 382.7,78.2 C382.766667,77.53333 382.866666,76.86667 383,76.2 C383.133334,75.53333 383.2,74.800004 383.2,74 C383.333334,72.266658 383.300001,70.566675 383.1,68.9 C382.899999,67.233325 382.500003,65.866672 381.9,64.8 C381.299997,63.733328 380.500005,63.033335 379.5,62.7 C378.499995,62.366665 377.266674,62.666662 375.8,63.6 C373.533322,65.066674 371.233345,67.433317 368.9,70.7 C366.566655,73.966683 364.40001,77.499981 362.4,81.3 C360.39999,85.100019 358.700007,88.866648 357.3,92.6 C355.899993,96.333352 355.000002,99.399988 354.6,101.8 C354.066664,104.200012 353.666668,106.533322 353.4,108.8 C353.133332,111.066678 353.033333,113.099991 353.1,114.9 C353.166667,116.700009 353.499997,118.199994 354.1,119.4 C354.700003,120.600006 355.599994,121.266666 356.8,121.4 C357.46667,121.533334 358.499993,120.700009 359.9,118.9 C361.300007,117.099991 362.866658,114.833347 364.6,112.1 C366.333342,109.366653 368.166657,106.33335 370.1,103 C372.033343,99.66665 373.833325,96.433349 375.5,93.3 C377.166675,90.166651 378.599994,87.366679 379.8,84.9 C381.000006,82.433321 381.866664,80.733338 382.4,79.8 Z M172.032653,269.334693 L172,269.4 C172,269.438096 172.010884,269.416327 172.032653,269.334693 Z M172.032653,269.334693 C172.087075,269.130611 172.209524,268.552382 172.4,267.6 C172.533334,267.066664 172.666666,266.46667 172.8,265.8 C172.933334,265.13333 173,264.400004 173,263.6 C173.133334,263.066664 173.2,262.13334 173.2,260.8 C173.2,260.13333 173.066668,259.13334 172.8,257.8 C172.666666,257.13333 172.533334,256.566669 172.4,256.1 C172.266666,255.633331 172.066668,255.06667 171.8,254.4 C171.533332,253.866664 171.233335,253.366669 170.9,252.9 C170.566665,252.433331 170.266668,251.86667 170,251.2 C168.266658,249.066656 166.40001,247.266674 164.4,245.8 C163.333328,244.999996 162.166673,244.26667 160.9,243.6 C159.633327,242.93333 158.400006,242.26667 157.2,241.6 C154.933322,240.399994 152.400014,239.400004 149.6,238.6 C148.399994,238.066664 147.200006,237.633335 146,237.3 C144.799994,236.966665 143.666672,236.600002 142.6,236.2 C141.133326,235.799998 139.700007,235.400002 138.3,235 C136.899993,234.599998 135.466674,234.266668 134,234 C133.599998,239.600028 133.799996,244.199982 134.6,247.8 C135.400004,251.400018 136.46666,254.19999 137.8,256.2 C139.13334,258.20001 140.566659,259.599996 142.1,260.4 C143.633341,261.200004 144.799996,261.6 145.6,261.6 L147.2,261.6 C148.53334,261.6 149.2,262.333326 149.2,263.8 C149.066666,265.13334 147.533348,266.033331 144.6,266.5 C141.666652,266.966669 138.466684,266.266676 135,264.4 C133.799994,263.73333 132.500007,262.533342 131.1,260.8 C129.699993,259.066658 128.400006,256.86668 127.2,254.2 C125.999994,251.53332 125.000004,248.300019 124.2,244.5 C123.399996,240.699981 123,236.333358 123,231.4 C120.99999,230.866664 119.00001,230.400002 117,230 C114.99999,229.599998 113.00001,229.133336 111,228.6 C108.466654,227.93333 105.966679,227.300003 103.5,226.7 C101.033321,226.099997 98.600012,225.46667 96.2,224.8 C93.799988,224.13333 91.366679,223.366671 88.9,222.5 C86.433321,221.633329 84.066678,220.666672 81.8,219.6 C80.733328,218.93333 79.633339,218.300003 78.5,217.7 C77.366661,217.099997 76.266672,216.400004 75.2,215.6 C73.066656,213.999992 71.200008,212.133344 69.6,210 L69.4,209.6 C69.266666,209.466666 69.2,209.333334 69.2,209.2 C69.066666,208.933332 68.866668,208.666668 68.6,208.4 C68.466666,207.866664 68.266668,207.200004 68,206.4 C67.599998,205.199994 67.4,203.866674 67.4,202.4 C67.4,201.73333 67.466666,201.06667 67.6,200.4 C67.733334,199.73333 67.933332,199.06667 68.2,198.4 C68.466668,197.73333 68.733332,197.133336 69,196.6 C69.266668,196.066664 69.533332,195.46667 69.8,194.8 C70.200002,194.13333 70.599998,193.500003 71,192.9 C71.400002,192.299997 71.866664,191.66667 72.4,191 C72.933336,190.33333 73.433331,189.733336 73.9,189.2 C74.366669,188.666664 74.93333,188.133336 75.6,187.6 C76.666672,186.533328 77.766661,185.500005 78.9,184.5 C80.033339,183.499995 81.199994,182.466672 82.4,181.4 C87.200024,177.666648 92.199974,174.266682 97.4,171.2 C99.266676,170.133328 100.966659,169.133338 102.5,168.2 C104.033341,167.266662 105.533326,166.400004 107,165.6 C109.533346,164.133326 112.266652,162.73334 115.2,161.4 L122.6,157.7 C125.133346,156.433327 127.999984,155.066674 131.2,153.6 C123.733296,155.866678 116.366703,158.399986 109.1,161.2 C101.833297,164.000014 95.000032,166.999984 88.6,170.2 C79.133286,175.000024 71.900025,179.899975 66.9,184.9 C61.899975,189.900025 58.600008,194.499979 57,198.7 C55.399992,202.900021 55.26666,206.566651 56.6,209.7 C57.93334,212.833349 60.199984,214.999994 63.4,216.2 C63.800002,216.333334 64.199998,216.533332 64.6,216.8 C65.26667,217.200002 65.533334,217.666664 65.4,218.2 C65.133332,219.266672 64.300007,220.199996 62.9,221 C61.499993,221.800004 59.666678,221.666672 57.4,220.6 C55.39999,219.666662 53.533342,217.800014 51.8,215 C50.066658,212.199986 49.066668,208.766687 48.8,204.7 C48.533332,200.633313 49.266658,196.100025 51,191.1 C52.733342,186.099975 56.133308,180.866694 61.2,175.4 C64.400016,171.933316 69.033303,168.466684 75.1,165 C81.166697,161.533316 87.999962,158.166683 95.6,154.9 C103.200038,151.633317 111.199958,148.566681 119.6,145.7 C128.000042,142.833319 136.166627,140.233345 144.1,137.9 C152.033373,135.566655 159.3333,133.566675 166,131.9 C172.6667,130.233325 178.133312,129.000004 182.4,128.2 L183.6,128.2 C184.133336,128.2 184.73333,128.399998 185.4,128.8 C186.06667,129.46667 186.766663,130.499993 187.5,131.9 C188.233337,133.300007 188.400002,135.199988 188,137.6 C187.866666,138.000002 187.733334,138.333332 187.6,138.6 C187.199998,139.26667 186.800002,139.6 186.4,139.6 C184.666658,140.000002 181.13336,140.799994 175.8,142 C170.46664,143.200006 164.066704,144.733324 156.6,146.6 C158.466676,147.666672 159.833329,148.899993 160.7,150.3 C161.566671,151.700007 161.466672,153.333324 160.4,155.2 C159.73333,156.266672 158.033347,159.633305 155.3,165.3 C152.566653,170.966695 149.600016,177.999958 146.4,186.4 C149.466682,185.599996 152.066656,184.900003 154.2,184.3 C156.333344,183.699997 157.866662,183.4 158.8,183.4 C160.13334,183.266666 161.366661,183.53333 162.5,184.2 C163.633339,184.86667 164.53333,185.733328 165.2,186.8 C165.86667,187.866672 166.399998,188.966661 166.8,190.1 C167.200002,191.233339 167.4,192.13333 167.4,192.8 C167.4,194.13334 166.73334,194.8 165.4,194.8 C164.866664,194.8 164.26667,194.733334 163.6,194.6 C162.133326,193.93333 159.533352,193.899997 155.8,194.5 C152.066648,195.100003 147.666692,195.999994 142.6,197.2 C141.133326,201.466688 139.800006,205.833311 138.6,210.3 C137.399994,214.766689 136.333338,219.33331 135.4,224 C134.73333,227.200016 134.333334,230.066654 134.2,232.6 C135.53334,232.866668 136.799994,233.199998 138,233.6 C139.200006,234.000002 140.46666,234.333332 141.8,234.6 C143.533342,235.133336 145.199992,235.666664 146.8,236.2 C148.400008,236.733336 150.066658,237.33333 151.8,238 C153.400008,238.66667 154.999992,239.366663 156.6,240.1 C158.200008,240.833337 159.733326,241.666662 161.2,242.6 C162.266672,243.26667 163.099997,243.799998 163.7,244.2 C164.300003,244.600002 164.866664,244.999998 165.4,245.4 C166.06667,245.933336 166.666664,246.433331 167.2,246.9 C167.733336,247.366669 168.399996,248.066662 169.2,249 C170.266672,250.066672 171.266662,251.59999 172.2,253.6 C172.600002,254.666672 172.999998,255.86666 173.4,257.2 C173.533334,257.86667 173.633333,258.499997 173.7,259.1 C173.766667,259.700003 173.733334,260.33333 173.6,261 L173.6,262.8 C173.6,263.333336 173.533334,263.93333 173.4,264.6 C173.133332,265.93334 172.933334,266.866664 172.8,267.4 C172.533332,267.666668 172.4,267.999998 172.4,268.4 C172.266666,268.533334 172.2,268.733332 172.2,269 L172.032653,269.334693 Z M124.8,213 C125.200002,210.866656 125.599998,208.766677 126,206.7 C126.400002,204.633323 126.866664,202.666676 127.4,200.8 C125.933326,201.066668 124.53334,201.366665 123.2,201.7 C121.86666,202.033335 120.53334,202.333332 119.2,202.6 C120.400006,204.066674 121.466662,205.699991 122.4,207.5 C123.333338,209.300009 124.13333,211.133324 124.8,213 Z M130.2,190.8 C133.000014,181.599954 136.099983,173.566701 139.5,166.7 C142.900017,159.833299 146.133318,153.73336 149.2,148.4 C147.999994,148.800002 146.800006,149.166665 145.6,149.5 C144.399994,149.833335 143.13334,150.199998 141.8,150.6 L141.4,150.6 C139.666658,151.400004 137.900009,152.199996 136.1,153 C134.299991,153.800004 132.40001,154.666662 130.4,155.6 C126.266646,157.466676 122.20002,159.39999 118.2,161.4 C114.19998,163.40001 110.266686,165.533322 106.4,167.8 C104.533324,168.866672 102.733342,169.899995 101,170.9 C99.266658,171.900005 97.533342,172.933328 95.8,174 C93.933324,175.066672 92.166675,176.199994 90.5,177.4 C88.833325,178.600006 87.200008,179.799994 85.6,181 C83.866658,182.33334 82.233341,183.66666 80.7,185 C79.166659,186.33334 77.666674,187.733326 76.2,189.2 C75.53333,189.86667 74.900003,190.599996 74.3,191.4 C73.699997,192.200004 73.06667,192.999996 72.4,193.8 C71.06666,195.533342 70.133336,197.333324 69.6,199.2 C69.333332,200.000004 69.2,200.599998 69.2,201 C69.2,201.133334 69.166667,201.266666 69.1,201.4 C69.033333,201.533334 69,201.666666 69,201.8 L69,202.8 C69,204.000006 69.199998,205.199994 69.6,206.4 C70.000002,207.466672 70.53333,208.533328 71.2,209.6 C71.466668,209.866668 71.666666,210.099999 71.8,210.3 C71.933334,210.500001 72.133332,210.733332 72.4,211 C72.800002,211.533336 73.266664,211.999998 73.8,212.4 C74.733338,213.333338 75.733328,214.13333 76.8,214.8 L80,216.8 C81.066672,217.46667 82.199994,218.033331 83.4,218.5 C84.600006,218.966669 85.799994,219.466664 87,220 C88.466674,220.533336 89.86666,221.033331 91.2,221.5 C92.53334,221.966669 93.933326,222.399998 95.4,222.8 C96.866674,223.333336 98.299993,223.799998 99.7,224.2 C101.100007,224.600002 102.533326,224.933332 104,225.2 C106.933348,226.000004 109.833319,226.73333 112.7,227.4 C115.566681,228.06667 118.466652,228.73333 121.4,229.4 C122.200004,229.666668 122.733332,229.8 123,229.8 L123,229.6 C122.599998,223.199968 121.466676,217.933354 119.6,213.8 C117.733324,209.666646 115.666678,206.333346 113.4,203.8 C107.39997,204.866672 102.200022,205.433333 97.8,205.5 C93.399978,205.566667 90.666672,204.60001 89.6,202.6 C88.533328,200.733324 88.599994,199.266672 89.8,198.2 C91.000006,197.133328 92.533324,196.26667 94.4,195.6 C96.533344,195.066664 99.133318,194.666668 102.2,194.4 C103.266672,194.533334 104.299995,194.666666 105.3,194.8 C106.300005,194.933334 107.266662,195.133332 108.2,195.4 C111.666684,194.866664 115.266648,194.200004 119,193.4 C122.733352,192.599996 126.466648,191.733338 130.2,190.8 Z M247.666667,140.8 C249.666677,141.600004 250.999997,142.99999 251.666667,145 C252.333337,147.00001 252.566668,149.233321 252.366667,151.7 C252.166666,154.166679 251.700004,156.799986 250.966667,159.6 C250.23333,162.400014 249.466671,164.999988 248.666667,167.4 C247.999997,169.266676 247.266671,171.333322 246.466667,173.6 C245.799997,175.466676 245.000005,177.699987 244.066667,180.3 C243.133329,182.900013 242.133339,185.599986 241.066667,188.4 C239.066657,193.600026 237.300008,198.86664 235.766667,204.2 C234.233326,209.53336 233.066671,214.86664 232.266667,220.2 C233.733341,221.266672 234.899996,222.13333 235.766667,222.8 C236.633338,223.46667 237.133333,223.8 237.266667,223.8 C237.400001,223.933334 237.5,224.066666 237.566667,224.2 C237.633334,224.333334 237.733333,224.466666 237.866667,224.6 C238.000001,224.733334 238.066667,224.866666 238.066667,225 L238.466667,226.6 C238.600001,227.533338 238.799999,228.866658 239.066667,230.6 C239.066667,231.400004 238.966668,232.266662 238.766667,233.2 C238.566666,234.133338 238.266669,234.966663 237.866667,235.7 C237.466665,236.433337 236.96667,236.866666 236.366667,237 C235.766664,237.133334 235.066671,236.800004 234.266667,236 C233.999999,235.733332 233.600003,235.366669 233.066667,234.9 C232.533331,234.433331 231.866671,233.86667 231.066667,233.2 C231.066667,237.733356 231.266665,242.199978 231.666667,246.6 C232.066669,249.800016 232.499998,252.333324 232.966667,254.2 C233.433336,256.066676 233.966664,257.466662 234.566667,258.4 C235.16667,259.333338 235.766664,259.899999 236.366667,260.1 C236.96667,260.300001 237.533331,260.266668 238.066667,260 C238.066667,259.866666 238.133333,259.8 238.266667,259.8 L238.666667,259.8 C238.933335,260.200002 238.933335,260.866662 238.666667,261.8 C238.399999,262.600004 237.866671,263.566661 237.066667,264.7 C236.266663,265.833339 235.133341,266.533332 233.666667,266.8 C232.999997,266.933334 232.200005,266.866668 231.266667,266.6 C230.866665,266.466666 230.533335,266.333334 230.266667,266.2 C228.399991,265.266662 226.866673,263.933342 225.666667,262.2 C224.466661,260.466658 223.466671,258.500011 222.666667,256.3 C221.866663,254.099989 221.233336,251.766679 220.766667,249.3 C220.299998,246.833321 220.000001,244.466678 219.866667,242.2 C219.599999,240.19999 219.466667,238.166677 219.466667,236.1 C219.466667,234.033323 219.533333,232.200008 219.666667,230.6 C219.800001,228.733324 219.933333,226.933342 220.066667,225.2 C217.266653,223.466658 214.23335,221.733342 210.966667,220 C207.699984,218.266658 204.333351,216.73334 200.866667,215.4 C198.999991,221.666698 197.500006,228.266632 196.366667,235.2 C195.233328,242.133368 194.533335,249.59996 194.266667,257.6 C194.400001,258.133336 194.400001,258.666664 194.266667,259.2 C193.999999,260.266672 193.533337,260.8 192.866667,260.8 C192.333331,260.8 191.500006,260.633335 190.366667,260.3 C189.233328,259.966665 188.100006,259.200006 186.966667,258 C185.833328,256.799994 184.933337,255.100011 184.266667,252.9 C183.599997,250.699989 183.533331,247.733352 184.066667,244 C184.066667,242.799994 184.199999,241.53334 184.466667,240.2 C184.733335,239.133328 184.966666,237.900007 185.166667,236.5 C185.366668,235.099993 185.666665,233.666674 186.066667,232.2 C186.733337,229.133318 187.566662,225.966683 188.566667,222.7 C189.566672,219.433317 190.666661,216.066684 191.866667,212.6 C189.199987,212.066664 186.56668,211.733334 183.966667,211.6 C181.366654,211.466666 178.800013,211.599998 176.266667,212 C172.533315,212.66667 170.266671,213.533328 169.466667,214.6 C168.666663,215.666672 168.399999,216.666662 168.666667,217.6 L168.666667,218 C168.666667,218.400002 168.266671,218.466668 167.466667,218.2 C167.066665,218.066666 166.533337,217.633337 165.866667,216.9 C165.199997,216.166663 164.800001,215.200006 164.666667,214 C164.533333,213.599998 164.5,213.233335 164.566667,212.9 C164.633334,212.566665 164.666667,212.266668 164.666667,212 C164.666667,211.599998 164.733333,211.266668 164.866667,211 C165.800005,208.33332 167.433322,206.433339 169.766667,205.3 C172.100012,204.166661 174.599987,203.400002 177.266667,203 C180.200015,202.466664 183.466649,202.333332 187.066667,202.6 C188.533341,202.866668 189.933327,203.099999 191.266667,203.3 C192.600007,203.500001 193.933327,203.733332 195.266667,204 L196.466667,201.6 L196.066667,201.4 C193.399987,200.466662 190.700014,199.633337 187.966667,198.9 C185.23332,198.166663 182.466681,197.46667 179.666667,196.8 L177.466667,196.2 L176.466667,196 C176.199999,196 176.033334,195.966667 175.966667,195.9 C175.9,195.833333 175.733335,195.8 175.466667,195.8 L171.266667,194.8 C170.599997,194.666666 169.900004,194.533334 169.166667,194.4 C168.43333,194.266666 167.733337,194.133334 167.066667,194 C166.399997,193.866666 165.700004,193.733334 164.966667,193.6 C164.23333,193.466666 163.533337,193.333334 162.866667,193.2 C160.999991,192.933332 159.200009,192.700001 157.466667,192.5 C155.733325,192.299999 153.933343,192.066668 152.066667,191.8 C150.199991,191.666666 148.400009,191.566667 146.666667,191.5 C144.933325,191.433333 143.200009,191.533332 141.466667,191.8 C140.399995,191.933334 139.366672,192.066666 138.366667,192.2 C137.366662,192.333334 136.400005,192.533332 135.466667,192.8 C133.599991,193.200002 131.800009,193.933328 130.066667,195 C129.799999,195.266668 129.600001,195.433333 129.466667,195.5 C129.333333,195.566667 129.133335,195.733332 128.866667,196 C128.733333,196 128.533335,196.133332 128.266667,196.4 C128.266667,196.533334 128.133335,196.733332 127.866667,197 C127.599999,197.266668 127.366668,197.633331 127.166667,198.1 C126.966666,198.566669 126.733335,198.999998 126.466667,199.4 C126.066665,200.333338 125.833334,201.266662 125.766667,202.2 C125.7,203.133338 125.733333,204.133328 125.866667,205.2 C126.000001,206.266672 126.233332,207.366661 126.566667,208.5 C126.900002,209.633339 127.333331,210.733328 127.866667,211.8 C128.800005,213.80001 129.999993,215.866656 131.466667,218 C134.000013,221.866686 137.133315,225.46665 140.866667,228.8 C142.066673,230.000006 142.933331,230.799998 143.466667,231.2 C144.000003,231.733336 144.866661,232.399996 146.066667,233.2 C146.866671,234.000004 147.866661,234.73333 149.066667,235.4 C149.733337,235.800002 150.43333,236.233331 151.166667,236.7 C151.900004,237.166669 152.666663,237.599998 153.466667,238 C154.133337,238.400002 154.799997,238.733332 155.466667,239 C156.133337,239.266668 156.733331,239.533332 157.266667,239.8 L158.666667,240.4 C158.133331,240.4 156.866677,240.000004 154.866667,239.2 C152.866657,238.399996 150.200017,236.933344 146.866667,234.8 C143.933319,232.79999 141.000015,230.46668 138.066667,227.8 C136.599993,226.333326 135.266673,224.93334 134.066667,223.6 C132.866661,222.26666 131.800005,220.866674 130.866667,219.4 C129.666661,218.06666 128.666671,216.466676 127.866667,214.6 C126.933329,213.133326 126.133337,211.40001 125.466667,209.4 L124.666667,206.6 C124.399999,205.666662 124.266667,204.666672 124.266667,203.6 C124.266667,202.26666 124.333333,201.26667 124.466667,200.6 C124.600001,200.066664 124.933331,199.13334 125.466667,197.8 C126.133337,196.333326 127.399991,194.93334 129.266667,193.6 C129.933337,193.066664 130.699996,192.633335 131.566667,192.3 C132.433338,191.966665 133.266663,191.666668 134.066667,191.4 C135.000005,191.133332 135.899996,190.933334 136.766667,190.8 C137.633338,190.666666 138.533329,190.533334 139.466667,190.4 C140.400005,190.266666 141.299996,190.166667 142.166667,190.1 C143.033338,190.033333 143.866663,190 144.666667,190 C148.266685,190 151.799983,190.199998 155.266667,190.6 C157.133343,190.866668 158.899992,191.099999 160.566667,191.3 C162.233342,191.500001 163.999991,191.799998 165.866667,192.2 C170.000021,192.86667 174.09998,193.699995 178.166667,194.7 C182.233354,195.700005 186.266647,196.799994 190.266667,198 C190.800003,198.133334 191.466663,198.333332 192.266667,198.6 C192.800003,198.733334 193.466663,198.933332 194.266667,199.2 C194.800003,199.333334 195.266665,199.466666 195.666667,199.6 C196.066669,199.733334 196.533331,199.933332 197.066667,200.2 C200.400017,192.86663 204.066647,185.733368 208.066667,178.8 C212.066687,171.866632 216.133313,165.700027 220.266667,160.3 C224.400021,154.899973 228.399981,150.433351 232.266667,146.9 C236.133353,143.366649 239.599985,141.26667 242.666667,140.6 C243.733339,140.333332 244.666663,140.233333 245.466667,140.3 C246.266671,140.366667 246.999997,140.533332 247.666667,140.8 Z M203.866667,206.2 C207.200017,207.266672 210.333319,208.433327 213.266667,209.7 C216.200015,210.966673 218.933321,212.26666 221.466667,213.6 L221.466667,213.2 C221.199999,213.066666 221.033334,212.966667 220.966667,212.9 C220.9,212.833333 220.733335,212.733334 220.466667,212.6 C219.933331,212.199998 219.400003,211.833335 218.866667,211.5 C218.333331,211.166665 217.733337,210.866668 217.066667,210.6 C216.399997,210.199998 215.76667,209.833335 215.166667,209.5 C214.566664,209.166665 213.933337,208.800002 213.266667,208.4 L212.266667,208 L209.066667,206.4 L206.866667,205.6 L205.866667,205 L204.866667,204.6 L204.466667,204.6 C204.333333,204.866668 204.133335,205.399996 203.866667,206.2 Z M238.866667,155.2 C239.666671,153.333324 240.366664,151.900005 240.966667,150.9 L242.466667,148.4 C241.133327,149.600006 239.033348,151.599986 236.166667,154.4 C233.299986,157.200014 230.066685,160.866644 226.466667,165.4 C222.866649,169.933356 219.200019,175.333302 215.466667,181.6 C211.733315,187.866698 208.266683,195.066626 205.066667,203.2 C205.466669,203.333334 205.933331,203.533332 206.466667,203.8 L209.466667,205 C210.133337,205.266668 210.699998,205.533332 211.166667,205.8 C211.633336,206.066668 212.199997,206.333332 212.866667,206.6 C213.133335,206.866668 213.433332,207.033333 213.766667,207.1 C214.100002,207.166667 214.399999,207.333332 214.666667,207.6 C214.933335,207.6 215.199999,207.733332 215.466667,208 C215.733335,208.133334 215.9,208.233333 215.966667,208.3 C216.033334,208.366667 216.199999,208.466666 216.466667,208.6 C216.733335,208.866668 217.066665,209.066666 217.466667,209.2 C217.866669,209.333334 218.266665,209.533332 218.666667,209.8 L219.666667,210.4 L220.266667,210.6 L220.666667,211 C220.933335,211.133334 221.1,211.233333 221.166667,211.3 C221.233334,211.366667 221.399999,211.466666 221.666667,211.6 C223.666677,199.466606 226.36665,188.600048 229.766667,179 C233.166684,169.399952 236.199987,161.466698 238.866667,155.2 Z M392.733342,283.994724 C392.733336,283.996482 392.733333,283.998241 392.733333,284 C392.733333,284.133334 392.666667,284.2 392.533333,284.2 L392.633333,284.1 C392.665792,284.067542 392.699128,284.03245 392.733342,283.994724 Z M392.733342,283.994724 C392.734216,283.729814 392.800879,283.464909 392.933333,283.2 C393.066667,282.933332 393.166666,282.766667 393.233333,282.7 C393.3,282.633333 393.399999,282.466668 393.533333,282.2 C393.800001,281.666664 394.066665,281.200002 394.333333,280.8 C394.333333,280.666666 394.366666,280.533334 394.433333,280.4 C394.5,280.266666 394.533333,280.133334 394.533333,280 C394.800001,279.733332 394.933333,279.466668 394.933333,279.2 C395.066667,278.933332 395.199999,278.633335 395.333333,278.3 C395.466667,277.966665 395.599999,277.600002 395.733333,277.2 C395.866667,276.933332 395.933333,276.600002 395.933333,276.2 C395.933333,275.799998 395.999999,275.400002 396.133333,275 C396.266667,274.733332 396.333333,274.333336 396.333333,273.8 C396.333333,273.266664 396.399999,272.866668 396.533333,272.6 C396.533333,270.733324 396.266669,269.066674 395.733333,267.6 C395.199997,265.999992 394.266673,264.466674 392.933333,263 C392.399997,262.33333 391.800003,261.700003 391.133333,261.1 C390.466663,260.499997 389.800003,259.933336 389.133333,259.4 L388.733333,259 C388.599999,259 388.400001,258.866668 388.133333,258.6 C387.866665,258.466666 387.7,258.366667 387.633333,258.3 C387.566666,258.233333 387.400001,258.133334 387.133333,258 C386.866665,257.733332 386.533335,257.533334 386.133333,257.4 C385.733331,257.266666 385.400001,257.066668 385.133333,256.8 C384.333329,256.399998 383.533337,255.966669 382.733333,255.5 C381.933329,255.033331 381.133337,254.666668 380.333333,254.4 C379.533329,253.999998 378.733337,253.633335 377.933333,253.3 C377.133329,252.966665 376.333337,252.666668 375.533333,252.4 C373.799991,251.73333 372.100008,251.133336 370.433333,250.6 C368.766658,250.066664 367.066675,249.533336 365.333333,249 C362.133317,248.066662 358.933349,247.233337 355.733333,246.5 C352.533317,245.766663 349.266683,245.000004 345.933333,244.2 C342.733317,243.53333 339.500016,242.86667 336.233333,242.2 C332.96665,241.53333 329.733349,240.86667 326.533333,240.2 C325.866663,239.933332 325.16667,239.766667 324.433333,239.7 C323.699996,239.633333 323.000003,239.533334 322.333333,239.4 C318.866649,245.933366 314.600025,251.699975 309.533333,256.7 C304.466641,261.700025 298.133371,265.066658 290.533333,266.8 C296.533363,269.066678 301.099984,271.433321 304.233333,273.9 C307.366682,276.366679 308.999999,277.666666 309.133333,277.8 C309.400001,278.066668 309.666665,278.466664 309.933333,279 C310.066667,279.266668 310.199999,279.466666 310.333333,279.6 C310.466667,279.866668 310.599999,280.266664 310.733333,280.8 C311.000001,281.866672 311.133333,282.999994 311.133333,284.2 C311.133333,285.000004 311.033334,285.833329 310.833333,286.7 C310.633332,287.566671 310.366668,288.33333 310.033333,289 C309.699998,289.66667 309.266669,290.066666 308.733333,290.2 C308.199997,290.333334 307.533337,290.06667 306.733333,289.4 C305.933329,288.599996 304.000015,287.000012 300.933333,284.6 C297.866651,282.199988 294.100022,279.766679 289.633333,277.3 C285.166644,274.833321 280.166694,272.833341 274.633333,271.3 C269.099972,269.766659 263.466695,269.533328 257.733333,270.6 C254.266649,271.26667 252.16667,272.066662 251.433333,273 C250.699996,273.933338 250.466665,274.866662 250.733333,275.8 L250.733333,276 C250.466665,276.266668 250.133335,276.333334 249.733333,276.2 C249.199997,276.066666 248.666669,275.66667 248.133333,275 C247.599997,274.33333 247.200001,273.400006 246.933333,272.2 C246.799999,271.799998 246.866665,271.200004 247.133333,270.4 C247.266667,270.133332 247.333333,269.866668 247.333333,269.6 C247.866669,267.999992 248.733327,266.666672 249.933333,265.6 C251.133339,264.533328 252.499992,263.733336 254.033333,263.2 C255.566674,262.666664 257.133325,262.266668 258.733333,262 C260.333341,261.733332 261.799993,261.6 263.133333,261.6 C259.666649,258.399984 257.23334,254.300025 255.833333,249.3 C254.433326,244.299975 253.833332,238.933362 254.033333,233.2 C254.233334,227.466638 255.066659,221.666696 256.533333,215.8 C258.000007,209.933304 259.799989,204.600024 261.933333,199.8 C263.666675,195.933314 265.466657,192.33335 267.333333,189 C269.200009,185.66665 271.066657,182.533348 272.933333,179.6 C274.133339,173.866638 276.066653,168.300027 278.733333,162.9 C281.400013,157.499973 284.633314,152.866686 288.433333,149 C292.233352,145.133314 296.499976,142.300009 301.233333,140.5 C305.96669,138.699991 310.999973,138.46666 316.333333,139.8 C322.066695,141.266674 326.366652,144.233311 329.233333,148.7 C332.100014,153.166689 333.999995,158.39997 334.933333,164.4 C335.600003,168.933356 335.933333,174.066638 335.933333,179.8 C335.933333,184.733358 335.533337,190.599966 334.733333,197.4 C333.933329,204.200034 332.333345,211.733292 329.933333,220 C328.999995,223.066682 328.000005,226.066652 326.933333,229 C325.866661,231.933348 324.600007,234.866652 323.133333,237.8 C324.200005,238.066668 325.233328,238.299999 326.233333,238.5 C327.233338,238.700001 328.266661,238.933332 329.333333,239.2 C332.800017,239.86667 336.16665,240.53333 339.433333,241.2 C342.700016,241.86667 346.066649,242.599996 349.533333,243.4 C353.400019,244.333338 357.233314,245.266662 361.033333,246.2 C364.833352,247.133338 368.599981,248.26666 372.333333,249.6 C376.866689,251.333342 381.133313,253.19999 385.133333,255.2 C386.200005,255.86667 387.199995,256.499997 388.133333,257.1 C389.066671,257.700003 389.999995,258.399996 390.933333,259.2 L393.333333,261.6 C393.466667,261.866668 393.666665,262.133332 393.933333,262.4 L394.133333,262.8 C394.266667,262.8 394.333333,262.833333 394.333333,262.9 C394.333333,262.966667 394.399999,263 394.533333,263 L394.933333,263.8 C395.066667,263.933334 395.166666,264.066666 395.233333,264.2 C395.3,264.333334 395.399999,264.466666 395.533333,264.6 C395.800001,265.26667 396.033332,265.833331 396.233333,266.3 C396.433334,266.766669 396.599999,267.266664 396.733333,267.8 C396.733333,267.933334 396.766666,268.033333 396.833333,268.1 C396.9,268.166667 396.933333,268.266666 396.933333,268.4 L396.933333,268.8 C396.933333,268.933334 396.966666,269 397.033333,269 C397.1,269 397.133333,269.066666 397.133333,269.2 L397.133333,270 C397.266667,270.266668 397.333333,270.666664 397.333333,271.2 L397.333333,272.6 C397.333333,272.866668 397.3,273.033333 397.233333,273.1 C397.166666,273.166667 397.133333,273.333332 397.133333,273.6 L397.133333,274.2 C397.133333,274.333334 397.1,274.433333 397.033333,274.5 C396.966666,274.566667 396.933333,274.666666 396.933333,274.8 C396.666665,276.400008 396.133337,277.933326 395.333333,279.4 C395.333333,279.666668 395.200001,280.066664 394.933333,280.6 C394.799999,280.733334 394.600001,281.066664 394.333333,281.6 C394.199999,281.733334 394.1,281.866666 394.033333,282 C393.966666,282.133334 393.866667,282.266666 393.733333,282.4 C393.733333,282.533334 393.666667,282.666666 393.533333,282.8 C393.533333,282.933334 393.5,283 393.433333,283 C393.366666,283 393.333333,283.066666 393.333333,283.2 C393.109943,283.535085 392.909948,283.799991 392.733342,283.994724 Z M283.333333,219.8 C279.733315,216.733318 276.866677,212.800024 274.733333,208 C274.733333,208.266668 274.799999,208.599998 274.933333,209 C275.066667,209.400002 275.133333,209.666666 275.133333,209.8 C275.666669,212.333346 276.599993,214.799988 277.933333,217.2 C278.600003,218.266672 279.266663,219.299995 279.933333,220.3 C280.600003,221.300005 281.466661,222.333328 282.533333,223.4 C284.800011,225.40001 287.133321,227.06666 289.533333,228.4 C290.866673,229.06667 292.16666,229.699997 293.433333,230.3 C294.700006,230.900003 296.066659,231.399998 297.533333,231.8 L299.533333,232.4 L301.533333,232.8 C303.000007,233.333336 304.266661,233.666666 305.333333,233.8 C306.400005,234.066668 307.499994,234.333332 308.633333,234.6 C309.766672,234.866668 310.866661,235.133332 311.933333,235.4 C313.800009,231.666648 315.399993,227.833353 316.733333,223.9 C318.066673,219.966647 319.266661,216.066686 320.333333,212.2 C321.800007,206.466638 322.966662,201.033359 323.833333,195.9 C324.700004,190.766641 325.266665,186.266686 325.533333,182.4 C325.933335,177.866644 326.066667,173.666686 325.933333,169.8 C325.933333,163.399968 325.133341,157.900023 323.533333,153.3 C321.933325,148.699977 319.200019,146.06667 315.333333,145.4 C312.799987,144.999998 310.466677,145.199996 308.333333,146 C306.199989,146.800004 304.233342,147.966659 302.433333,149.5 C300.633324,151.033341 298.966674,152.833323 297.433333,154.9 C295.899992,156.966677 294.533339,159.066656 293.333333,161.2 C290.533319,166.400026 288.133343,172.3333 286.133333,179 C284.799993,183.66669 284.266665,187.866648 284.533333,191.6 C284.800001,195.333352 285.499994,198.666652 286.633333,201.6 C287.766672,204.533348 289.133325,207.066656 290.733333,209.2 C292.333341,211.333344 293.866659,213.06666 295.333333,214.4 L296.333333,215.4 C297.000003,216.06667 297.333333,216.73333 297.333333,217.4 C297.333333,218.600006 296.800005,219.466664 295.733333,220 C293.866657,221.066672 292.166674,221.633333 290.633333,221.7 C289.099992,221.766667 287.800005,221.666668 286.733333,221.4 C285.399993,220.999998 284.266671,220.46667 283.333333,219.8 Z M286.933333,261.4 C292.000025,260.06666 296.533313,257.133356 300.533333,252.6 C304.533353,248.066644 308.066651,242.80003 311.133333,236.8 C309.799993,236.533332 308.466673,236.233335 307.133333,235.9 C305.799993,235.566665 304.466673,235.266668 303.133333,235 C302.866665,234.866666 302.533335,234.766667 302.133333,234.7 C301.733331,234.633333 301.400001,234.533334 301.133333,234.4 C300.866665,234.266666 300.566668,234.2 300.233333,234.2 C299.899998,234.2 299.600001,234.133334 299.333333,234 C299.066665,233.866666 298.800001,233.766667 298.533333,233.7 C298.266665,233.633333 298.000001,233.533334 297.733333,233.4 C297.466665,233.4 297.3,233.366667 297.233333,233.3 C297.166666,233.233333 297.066667,233.2 296.933333,233.2 C296.666665,233.2 296.5,233.166667 296.433333,233.1 C296.366666,233.033333 296.266667,233 296.133333,233 C295.066661,232.599998 294.066671,232.200002 293.133333,231.8 C292.199995,231.399998 291.266671,231.000002 290.333333,230.6 C289.799997,230.333332 289.400001,230.066668 289.133333,229.8 C288.866665,229.666666 288.633334,229.566667 288.433333,229.5 C288.233332,229.433333 288.000001,229.333334 287.733333,229.2 C287.466665,228.933332 287.266667,228.8 287.133333,228.8 L286.533333,228.2 C286.266665,228.066666 286.033334,227.933334 285.833333,227.8 C285.633332,227.666666 285.400001,227.533334 285.133333,227.4 C284.599997,226.866664 284.133335,226.533334 283.733333,226.4 L282.533333,225.2 C282.266665,224.933332 282.033334,224.700001 281.833333,224.5 C281.633332,224.299999 281.400001,224.066668 281.133333,223.8 C280.733331,223.533332 280.266669,223.000004 279.733333,222.2 C279.733333,222.2 279.600001,222.066668 279.333333,221.8 L278.933333,221.4 L278.333333,220.4 L277.533333,219.4 C277.533333,219.266666 277.466667,219.133334 277.333333,219 L276.933333,218.4 C276.666665,217.999998 276.433334,217.566669 276.233333,217.1 C276.033332,216.633331 275.800001,216.133336 275.533333,215.6 L274.933333,213.8 C274.799999,213.666666 274.733333,213.533334 274.733333,213.4 C274.733333,213.266666 274.666667,213.133334 274.533333,213 C274.533333,212.733332 274.5,212.566667 274.433333,212.5 C274.366666,212.433333 274.333333,212.266668 274.333333,212 C274.066665,211.33333 273.866667,210.633337 273.733333,209.9 C273.599999,209.166663 273.533333,208.46667 273.533333,207.8 C270.999987,214.4667 269.36667,221.266632 268.633333,228.2 C267.899996,235.133368 268.099994,241.26664 269.233333,246.6 C270.366672,251.93336 272.399985,256.033319 275.333333,258.9 C278.266681,261.766681 282.133309,262.600006 286.933333,261.4 Z" id="Ireland-FAQ" fill="#000000" fill-rule="nonzero"></path>
    </g>
</svg>